<?xml version="1.0" encoding="UTF-8"?><svg id="Capa_1" xmlns="http://www.w3.org/2000/svg" viewBox="0 0 63.92 53"><defs><style>.cls-1,.cls-2{fill:none;}.cls-1,.cls-2,.cls-3,.cls-4{stroke-miterlimit:10;}.cls-1,.cls-2,.cls-4{stroke:#000;}.cls-2{stroke-width:.87px;}.cls-3{stroke:#199cde;}.cls-3,.cls-4{fill:#fff;}</style></defs><rect class="cls-4" x="15.25" y="6.61" width="42.95" height="30.06" rx="3.41" ry="3.41"/><rect x="15.25" y="12.16" width="42.95" height="6.54"/><rect class="cls-2" x="42.85" y="25.33" width="12.41" height="5.31" rx="2.47" ry="2.47"/><rect class="cls-3" x="5.71" y="16.33" width="42.95" height="30.06" rx="3.41" ry="3.41"/><rect class="cls-1" x="10.77" y="21.64" width="10.86" height="8.59" rx="1.39" ry="1.39"/><rect x="9.88" y="34.9" width="9.47" height="2.08" rx=".33" ry=".33"/><rect x="21.63" y="34.9" width="9.47" height="2.08" rx=".33" ry=".33"/><rect x="10.77" y="39.83" width="3.03" height="2.08" rx=".33" ry=".33"/><rect x="15.25" y="39.83" width="3.03" height="2.08" rx=".33" ry=".33"/><rect x="19.74" y="39.83" width="3.03" height="2.08" rx=".33" ry=".33"/><rect x="24.23" y="39.83" width="3.03" height="2.08" rx=".33" ry=".33"/><rect x="28.71" y="39.83" width="3.03" height="2.08" rx=".33" ry=".33"/><rect x="33.2" y="39.83" width="3.03" height="2.08" rx=".33" ry=".33"/></svg>