<?xml version="1.0" encoding="UTF-8"?><svg id="Capa_1" xmlns="http://www.w3.org/2000/svg" xmlns:xlink="http://www.w3.org/1999/xlink" viewBox="0 0 63.92 53"><defs><style>.cls-1{fill:#199cde;}.cls-2{stroke:#000;stroke-miterlimit:10;}.cls-2,.cls-3{fill:none;}.cls-3{clip-path:url(#clippath);}</style><clipPath id="clippath"><circle class="cls-2" cx="31.96" cy="26.5" r="25"/></clipPath></defs><g class="cls-3"><path class="cls-1" d="m24.48,31.89c-1.01.02-2.07-.05-3.13-.16-.35-.04-.55.1-.63.45-.31,1.4-.62,2.81-.92,4.21-.09.43-.31.6-.71.56-.36-.04-.51-.24-.44-.61.61-3.48,1.22-6.96,1.83-10.44.16-.9.33-1.79.51-2.69.35-1.74,1.5-2.85,3.26-3.16,1.35-.24,2.7-.25,4.06-.04.7.11,1.35.34,1.86.87.48.51.68,1.12.69,1.8.01.97-.18,1.91-.34,2.86-.17,1.04-.38,2.06-.66,3.07-.32,1.17-.91,2.14-2.01,2.74-.65.36-1.36.5-2.1.53-.41.02-.82,0-1.28,0Zm-.03-1.29c.76,0,1.44.03,2.1-.13.45-.11.87-.25,1.21-.59.51-.53.7-1.2.86-1.88.27-1.18.46-2.38.64-3.58.08-.56.21-1.11.12-1.68-.13-.79-.7-1.15-1.41-1.32-1.02-.25-2.05-.33-3.09-.18-1.01.15-1.81.63-2.23,1.6-.86,2-1.18,4.11-1.26,6.27-.02.56.28.98.8,1.21.23.1.47.17.72.21.54.1,1.08.04,1.55.06Z"/><path class="cls-1" d="m48.71,26.6c-1-.04-2.36.07-3.72.05-.41,0-.81-.04-1.22-.04-.63,0-.81.17-.89.79-.07.59-.19,1.17-.04,1.76.22.9.88,1.42,1.84,1.45,1.8.05,3.59.07,5.39.07.21,0,.47-.06.51.28.05.52-.09.84-.41.92-.06.01-.12.02-.17.02-1.43-.04-2.85.15-4.28.11-.92-.02-1.84-.09-2.72-.42-1.09-.41-1.57-1.25-1.65-2.35-.08-1.2.1-2.38.31-3.56.17-.96.41-1.9.71-2.82.54-1.62,1.72-2.5,3.36-2.78,1.4-.24,2.8-.25,4.2-.03,1.4.22,2.2,1.12,2.28,2.53.07,1.18-.1,2.34-.32,3.5-.07.37-.26.52-.66.52-.72,0-1.44,0-2.51,0Zm2.19-3.74c.02-.95-.24-1.3-1.01-1.42-1.38-.21-2.77-.18-4.15-.06-.8.07-1.36.51-1.7,1.24-.34.72-.58,1.48-.79,2.25-.08.29.03.45.34.47.25.02.5-.03.75-.03,1.91.02,3.83-.04,5.74.03.33.01.54-.12.57-.41.1-.75.18-1.5.25-2.07Z"/><path class="cls-1" d="m34.28,31.84c-1.02,0-2.04,0-3.06,0-.22,0-.55.11-.54-.29.01-.56.11-.8.55-.83.46-.03.93-.04,1.4-.06,1.34-.07,2.68-.04,4.02-.07.64-.01,1.25-.14,1.77-.56.63-.51.97-1.73.67-2.48-.22-.54-.65-.81-1.2-.91-.82-.14-1.64-.16-2.47-.17-.71,0-1.42-.02-2.11-.22-1.16-.34-1.77-1.3-1.62-2.49.08-.62.21-1.22.46-1.8.41-.93,1.13-1.46,2.1-1.66,1.02-.21,2.06-.25,3.1-.21,1.1.04,2.19.06,3.29.08.38,0,.42.05.4.42-.03.46-.3.73-.8.75-.45.02-.89-.03-1.34-.04-1.27-.03-2.54-.08-3.81.04-1.16.11-1.95.89-2.06,2.04-.08.79.38,1.44,1.16,1.61.62.14,1.25.12,1.89.12.67,0,1.34-.01,2,.11.95.18,1.81.55,2.22,1.5.85,1.96-.33,4.59-2.55,4.82-.58.06-1.15.14-1.74.18-.58.04-1.16.03-1.75.1Z"/><path d="m9.75,26.3c-1.64,0-2.98,0-4.32,0-.42,0-.75.14-1.02.46-.42.51-.95.6-1.54.29-.48-.25-.74-.85-.61-1.39.14-.55.66-.95,1.26-.93.29,0,.55.12.76.32.3.29.65.43,1.07.43,2.36,0,4.72,0,7.08,0,.09,0,.22.05.27-.06.05-.1-.06-.17-.12-.25-.49-.61-.99-1.22-1.47-1.84-.18-.24-.41-.36-.69-.36-1.06,0-2.12,0-3.18,0-.34,0-.6.16-.84.4-.6.6-1.33.59-1.87,0-.43-.46-.42-1.17.03-1.64.47-.5,1.23-.61,1.66-.14.45.49.97.57,1.58.56.95-.02,1.9,0,2.86-.01.45,0,.78.17,1.05.52.6.78,1.21,1.56,1.82,2.34.25.32.57.48.98.48,1.44,0,2.87,0,4.31,0,.23,0,.46,0,.54.28.08.29-.06.5-.37.53-.32.04-.64-.02-.96-.06-1.31-.17-2.21.64-2.64,1.55-.23.49-.4,1.01-.73,1.45-.47.65-1.12.91-1.88.76-.58-.11-1.03-.02-1.43.45-.33.39-.79.42-1.26.22-.45-.19-.73-.52-.76-1.04-.04-.56.17-.97.66-1.22.53-.27,1.02-.12,1.45.25.97.83,2.18.61,2.8-.49.18-.32.43-.6.63-.91.15-.23.33-.47.17-.75-.16-.28-.47-.3-.75-.28-1.62.14-3.24.02-4.56.06Z"/><path d="m10.67,14.06c.66,0,1.23.56,1.24,1.22,0,.67-.58,1.26-1.26,1.27-.66.01-1.24-.58-1.24-1.25,0-.7.54-1.23,1.27-1.24Z"/><path d="m9.34,36.6c-.08-.65.61-1.26,1.19-1.23.74.03,1.27.54,1.26,1.27,0,.69-.54,1.2-1.26,1.2-.72,0-1.2-.5-1.2-1.24Z"/><path d="m12.98,34.23c-.75,0-1.25-.5-1.24-1.24,0-.66.57-1.22,1.23-1.21.67,0,1.3.59,1.26,1.23-.05.67-.51,1.28-1.25,1.22Z"/><path d="m7,18.79c-.02-.71.48-1.23,1.2-1.24.69-.01,1.24.49,1.26,1.17.02.68-.52,1.25-1.2,1.28-.6.03-1.31-.43-1.26-1.21Z"/><path d="m14.2,18.79c0,.72-.52,1.22-1.25,1.21-.7-.01-1.22-.56-1.21-1.29.01-.67.57-1.17,1.27-1.16.7.01,1.19.52,1.18,1.24Z"/><path d="m5.92,16.33c-.72,0-1.05-.45-1.09-1.07-.04-.54.5-1.03,1.09-1.02.6,0,1.06.47,1.05,1.05,0,.63-.42,1.03-1.04,1.04Z"/><path d="m2.02,22.57c0,.65-.41,1.04-1.06,1.04-.59,0-1.05-.47-1.04-1.06,0-.63.43-1.03,1.09-1.03.63,0,1.01.39,1.01,1.05Z"/><path d="m5.91,30.56c-.64,0-1.11-.46-1.1-1.07,0-.54.54-1.01,1.14-1.02.56,0,1,.46,1,1.06,0,.62-.42,1.03-1.05,1.03Z"/><path d="m4.34,18.77c0,.62-.43,1.05-1.04,1.04-.66-.01-1.06-.42-1.06-1.09,0-.6.45-1,1.09-.99.61,0,1.01.42,1.01,1.04Z"/><path d="m4.86,36.61c0-.62.39-1.03.98-1.02.73,0,1.13.38,1.11,1.04-.01.62-.43,1.03-1.04,1.03-.65,0-1.05-.41-1.05-1.06Z"/><path d="m2.02,29.52c0,.64-.38,1.03-1,1.03-.66,0-1.1-.4-1.1-1.02,0-.55.48-1.07,1.02-1.07.65,0,1.08.42,1.08,1.06Z"/><path d="m8.21,34.05c-.67,0-1.01-.34-1.02-1.03,0-.66.34-1.02.99-1.03.67,0,1.1.38,1.1,1,0,.63-.42,1.05-1.06,1.05Z"/><path d="m.26,36.64c0-.42.33-.77.71-.76.39,0,.74.35.74.74,0,.43-.29.74-.69.74-.46,0-.76-.29-.76-.72Z"/><path d="m2.76,33.04c0-.46.24-.72.71-.73.43-.01.74.28.75.7,0,.43-.3.74-.75.74-.42,0-.7-.29-.71-.71Z"/><path d="m.26,15.27c0-.44.29-.71.75-.7.46,0,.71.27.71.74,0,.38-.34.71-.71.71-.42,0-.75-.34-.75-.76Z"/></g><circle class="cls-2" cx="31.96" cy="26.5" r="25"/></svg>