<?xml version="1.0" encoding="utf-8"?>
<!-- Generator: Adobe Illustrator 27.6.1, SVG Export Plug-In . SVG Version: 6.00 Build 0)  -->
<svg version="1.1" id="Capa_1" xmlns="http://www.w3.org/2000/svg" xmlns:xlink="http://www.w3.org/1999/xlink" x="0px" y="0px"
	 viewBox="0 0 63.9 53" style="enable-background:new 0 0 63.9 53;" xml:space="preserve">
<style type="text/css">
	.st0{fill:none;stroke:#000000;stroke-miterlimit:10;}
	.st1{fill:none;stroke:#199CDE;stroke-miterlimit:10;}
</style>
<rect x="1.5" y="9.1" class="st0" width="60.9" height="34.9"/>
<path d="M32.9,26.2l-1-0.3C30.3,25.4,29,24.8,29,23s1.2-2.6,2.9-2.7l1,0.1c1.6,0.3,2.4,1.4,2.6,2.4h1.6c-0.2-2-1.7-3.5-4.2-3.7v-1.9
	h-1V19c-2.8,0.1-4.5,1.8-4.5,4.1c0,3,2.3,3.6,4.5,4.2l1,0.3c1.6,0.5,2.9,1.1,2.9,3c0,1.5-1,2.8-2.9,2.9l-1,0
	c-1.9-0.3-2.7-1.6-2.8-2.8h-1.6c0.1,2.2,1.8,3.8,4.5,4v1.8h1v-1.8c3-0.1,4.5-2.2,4.5-4.2C37.4,27.4,35.1,26.7,32.9,26.2L32.9,26.2z"
	/>
<g>
	<path class="st0" d="M24.5,37.6c-3.3-2.4-5.5-6.4-5.5-10.8c0-4.5,2.3-8.5,5.7-11H14.5c0.5,1.8,0,3.6-1.3,4.9
		c-2,1.9-4.6,1.4-4.7,1.3v9.8c1.8-0.4,3.6,0.2,4.7,1.5c1.5,1.7,1.2,3.9,1.1,4.2H24.5z"/>
	<path class="st0" d="M52,20.7c-2.2-1.9-2.1-4.6-2.1-4.9h-9.8c3.4,2.4,5.7,6.4,5.7,11c0,4.4-2.2,8.4-5.5,10.8h9.9
		c-0.1-0.3-0.5-2.4,1-4.2c1.2-1.5,3.2-2,5.1-1.5V22C56,22.1,53.9,22.2,52,20.7z"/>
</g>
<circle class="st1" cx="32.5" cy="26.8" r="13.4"/>
</svg>
