<?xml version="1.0" encoding="utf-8"?>
<!-- Generator: Adobe Illustrator 22.1.0, SVG Export Plug-In . SVG Version: 6.00 Build 0)  -->
<svg version="1.1" id="Capa_1" xmlns="http://www.w3.org/2000/svg" xmlns:xlink="http://www.w3.org/1999/xlink" x="0px" y="0px"
	 viewBox="0 0 316 110.3" style="enable-background:new 0 0 316 110.3;" xml:space="preserve">
<style type="text/css">
	.st0{fill:#FFFFFF;}
</style>
<g>
	<path class="st0" d="M292.3,99l2.2-5.6l2.3,5.6H292.3z M293.7,90l-6.3,15.5h2.1l1.8-4.6h6.2l1.9,4.6h2.1L295.2,90H293.7z
		 M283.6,90.1h2.1v15.4h-2.1V90.1z M284.9,85.7h2.1l-2.4,3.3h-1.2L284.9,85.7z M274,96.8h-1.3V92h1.3c2,0,2.8,0.9,2.9,2.3
		C276.9,95.6,276.2,96.8,274,96.8 M276.6,98.2c1.6-0.7,2.4-2,2.4-3.8c0-2.7-1.8-4.3-4.8-4.3h-3.7v15.4h2.1v-6.7h0.9
		c1.1,0,1.9,0.4,3.9,3.5l1.9,3.2h2.5c-1-1.5-1.4-2-2-3.1C278.7,100.6,277.9,99.1,276.6,98.2 M261.8,103.5h6.4v2h-8.5V90.1h8.3v2
		h-6.2v4.7h6v2h-6V103.5z M248.9,103.5h-3.3V92.1h3.2c4.1,0,5.9,2.6,5.9,5.7C254.8,99.7,253.7,103.5,248.9,103.5 M249.2,90.1h-5.7
		v15.4h5.7c4.8,0,7.7-3.8,7.7-7.7C256.9,94.2,254.6,90.1,249.2,90.1 M238.2,90.1h2v15.4h-1.8l-9.7-11.9v11.9h-2V90.1h1.7l9.9,12
		V90.1z M215.5,99l2.2-5.6L220,99H215.5z M216.9,90l-6.3,15.5h2.1l1.8-4.6h6.2l1.9,4.6h2.1L218.4,90H216.9z M212.2,90.1l-6.2,15.6
		h-0.4l-6.3-15.6h2.1l4.4,10.8l4.4-10.8H212.2z M191.4,99l2.2-5.6l2.3,5.6H191.4z M192.9,90l-6.3,15.5h2.1l1.8-4.6h6.2l1.9,4.6h2.1
		L194.4,90H192.9z M178.9,103.5h6.6v2h-8.7V90.1h2.1V103.5z M306.9,35.2h-0.6v-1.1h0.6c0.5,0,0.7,0.2,0.7,0.5
		C307.6,35.1,307.3,35.2,306.9,35.2 M308,35.8c0.5-0.3,0.8-0.7,0.8-1.2c0-0.7-0.6-1.4-1.6-1.4h-2.1v4.8h1.2v-2h0.3
		c0.6,0,0.8,0.9,1.4,2h1.3C308.6,36.6,308.5,36,308,35.8 M306.9,39.8c-2.3,0-4.1-1.9-4.1-4.2c0-2.3,1.9-4.2,4.1-4.2
		c2.3,0,4.1,1.9,4.1,4.2C311,38,309.2,39.8,306.9,39.8 M306.9,30.2c-3,0-5.4,2.5-5.4,5.5c0,3,2.4,5.5,5.4,5.5c3,0,5.4-2.5,5.4-5.5
		C312.3,32.6,309.9,30.2,306.9,30.2 M290.4,46.6h-6.9v-2.3h6.9v-6.2l1.9-2.4h0.9v8.6h7.2v2.3h-7.2V62c0,4.5,0.1,6.1,3.8,6.1
		c1.5,0,2.4-0.2,4.7-1.3v2.7c-0.5,0.3-1.4,0.6-2.4,0.9c-1,0.2-2.1,0.5-3,0.5c-2.9,0-6-1.6-6-5.6V46.6z M276.4,43.8
		c1.8,0,3.4,0.8,5.9,3.1l-1.6,2.6c-2.5-2.3-3.7-2.9-5.2-2.9c-2.5,0-5.5,2.7-8.3,7.5v16.8h-2.8V44.4h2.8v6.8h0.1
		C270.4,46.3,273.5,43.8,276.4,43.8 M245.3,68.1c-5.9,0-10.2-4.6-10.2-10.8c0-6.2,4.4-10.8,10.2-10.8c5.8,0,10.2,4.6,10.2,10.8
		S251.1,68.1,245.3,68.1 M245.3,43.8c-7.5,0-13.1,5.8-13.1,13.5c0,7.7,5.6,13.5,13.1,13.5c7.5,0,13.1-5.8,13.1-13.5
		C258.4,49.6,252.8,43.8,245.3,43.8 M206.9,48.5c2.7-1.4,4.5-1.9,6.8-1.9c6.2,0,10.7,4.6,10.7,10.9c0,6.4-4.1,10.6-10.3,10.6
		c-2.6,0-4.5-0.5-7.1-2V48.5z M206.9,68.9c2.9,1.4,5,2,7.6,2c7.2,0,12.8-6,12.8-13.6c0-7.7-5.4-13.4-12.7-13.4c-2.7,0-4.8,0.5-7.7,2
		v-1.4h-2.8v39.3h2.8V68.9z M163.9,63.9c-1.4,1.3-3,2-4.6,2c-1.5,0-2.7-1.3-2.7-2.8c0-2.7,2.4-3.8,7.3-5.6V63.9z M198.2,60
		c0-13.8-18.6-8.8-18.6-19.3c0-4.3,3.6-7.5,8.3-7.5c2.7,0,4.8,0.7,8.8,3v-3.4c-3-1.7-6-2.5-9.1-2.5c-6.2,0-11.2,4.6-11.2,10.5
		c0,13,18.6,8.1,18.6,19.3c0,4.5-3.6,7.9-8.3,7.9c-3,0-5.5-1.1-9.8-4.2c-1.9,1.4-2.6,1.5-3.2,1.5c-0.9,0-1.4-0.5-1.4-1.9V51.3
		c0-5.8-4.5-8.1-11.2-8.1c-4.2,0-8,1.1-11.5,3.2v6.8c2.6-2.7,6.4-4.5,9.8-4.5c3.6,0,4.8,2,4.6,4.5c-11.1,3.5-15.7,4.7-15.7,11.1
		c0,3.4,3.2,6.5,7.4,6.5c2.9,0,5.5-0.8,8.7-3c0.6,2.1,1.9,3,4.6,3c2.2,0,5.5-1.5,7.8-2.9c3.4,2.3,6.8,3.1,10,3.1
		C193.2,71.1,198.2,66.1,198.2,60 M137.4,43.7h8.8l-12.2,27.2h-4.6l-12.2-27.2h8.9l5.6,14.7L137.4,43.7z M106.3,53.2
		c-7.4,2.3-11.9,3.7-14.1,6.2c0.4-1.9,0.5-3.9,0.5-6c0-0.3,0-0.6,0-0.9c2.6-2.3,6-3.7,9-3.7C105.3,48.8,106.4,50.8,106.3,53.2
		 M106.3,63.9c-1.4,1.3-3,2-4.6,2c-1.5,0-2.7-1.3-2.7-2.8c0-2.7,2.4-3.8,7.3-5.6V63.9z M87.4,70.4H57.5V30.9h9.8v32.2h20.1V70.4z
		 M55.1,103c-7.4,0-13.4-6.1-13.4-13.5S47.6,76,55.1,76c7.4,0,13.4,6.1,13.4,13.5S62.5,103,55.1,103 M26.8,71.1
		c-10.6,0-19.2-8.6-19.2-19.3c0-10.7,8.6-19.3,19.2-19.3S46,41.1,46,51.8C46,62.4,37.4,71.1,26.8,71.1 M114.6,63.4V51.3
		c0-5.8-4.5-8.1-11.2-8.1c-4.2,0-8,1.1-11.5,3.2c-3.2-14.7-16.2-25.7-31.7-25.7c-9.7,0-18.5,4.3-24.4,11.2c-2.7-1.3-5.8-2-9-2
		c-12,0-21.7,9.8-21.7,21.9c0,12.1,9.7,21.9,21.7,21.9c2.5,0,4.8-0.4,7-1.2c2.2,3.1,4.9,5.8,8.1,8c-1.8,2.6-2.8,5.7-2.8,9.1
		c0,8.9,7.1,16.1,15.9,16.1c8.8,0,15.9-7.2,15.9-16.1c0-1.7-0.3-3.4-0.8-4.9c9.4-3.1,16.9-10.3,20.4-19.5c0.4,3.1,3.4,5.8,7.3,5.8
		c2.9,0,5.5-0.8,8.7-3c0.6,2.1,1.9,3,4.6,3c2.2,0,5.5-1,7.8-2.4v-4.7c-2,1.4-2.6,1.5-3.2,1.5C115.1,65.3,114.6,64.7,114.6,63.4
		 M35.2,6.6c3.8,0,6.8,3.1,6.8,6.9c0,3.8-3.1,6.9-6.8,6.9c-3.8,0-6.8-3.1-6.8-6.9C28.4,9.6,31.4,6.6,35.2,6.6 M35.2,22.9
		c5.2,0,9.4-4.2,9.4-9.4c0-5.2-4.2-9.4-9.4-9.4c-5.2,0-9.4,4.2-9.4,9.4C25.8,18.6,30,22.9,35.2,22.9 M97.1,98.1
		c-5.5,0-10-4.5-10-10.1c0-5.6,4.5-10.1,10-10.1c5.5,0,10,4.5,10,10.1C107.1,93.6,102.6,98.1,97.1,98.1 M97.1,75.4
		c-6.9,0-12.6,5.7-12.6,12.7c0,7,5.6,12.7,12.6,12.7c6.9,0,12.6-5.7,12.6-12.7C109.7,81,104,75.4,97.1,75.4 M73.1,8.9
		c1.9,0,3.5,1.6,3.5,3.5c0,1.9-1.6,3.5-3.5,3.5c-1.9,0-3.5-1.6-3.5-3.5C69.6,10.4,71.1,8.9,73.1,8.9 M73.1,18.5c3.3,0,6-2.7,6-6.1
		c0-3.4-2.7-6.1-6-6.1c-3.3,0-6,2.7-6,6.1C67,15.7,69.7,18.5,73.1,18.5"/>
</g>
</svg>
